<?xml version="1.0" encoding="utf-8" standalone="no"?>
<!DOCTYPE svg PUBLIC "-//W3C//DTD SVG 1.1//EN"
  "http://www.w3.org/Graphics/SVG/1.1/DTD/svg11.dtd">
<!-- Created with matplotlib (http://matplotlib.org/) -->
<svg height="432pt" version="1.1" viewBox="0 0 576 432" width="576pt" xmlns="http://www.w3.org/2000/svg" xmlns:xlink="http://www.w3.org/1999/xlink">
 <defs>
  <style type="text/css">
*{stroke-linecap:butt;stroke-linejoin:round;}
  </style>
 </defs>
 <g id="figure_1">
  <g id="patch_1">
   <path d="
M0 432
L576 432
L576 0
L0 0
z
" style="fill:#ffffff;"/>
  </g>
  <g id="axes_1">
   <g id="patch_2">
    <path d="
M72 388.8
L518.4 388.8
L518.4 43.2
L72 43.2
z
" style="fill:#ffffff;"/>
   </g>
   <g id="PathCollection_1">
    <defs>
     <path d="
M0 1.90544
C0.505327 1.90544 0.990026 1.70467 1.34735 1.34735
C1.70467 0.990026 1.90544 0.505327 1.90544 0
C1.90544 -0.505327 1.70467 -0.990026 1.34735 -1.34735
C0.990026 -1.70467 0.505327 -1.90544 0 -1.90544
C-0.505327 -1.90544 -0.990026 -1.70467 -1.34735 -1.34735
C-1.70467 -0.990026 -1.90544 -0.505327 -1.90544 0
C-1.90544 0.505327 -1.70467 0.990026 -1.34735 1.34735
C-0.990026 1.70467 -0.505327 1.90544 0 1.90544
z
" id="C0_0_071362156c"/>
     <path d="
M0 1.65898
C0.439966 1.65898 0.861971 1.48418 1.17307 1.17307
C1.48418 0.861971 1.65898 0.439966 1.65898 0
C1.65898 -0.439966 1.48418 -0.861971 1.17307 -1.17307
C0.861971 -1.48418 0.439966 -1.65898 0 -1.65898
C-0.439966 -1.65898 -0.861971 -1.48418 -1.17307 -1.17307
C-1.48418 -0.861971 -1.65898 -0.439966 -1.65898 0
C-1.65898 0.439966 -1.48418 0.861971 -1.17307 1.17307
C-0.861971 1.48418 -0.439966 1.65898 0 1.65898
z
" id="C0_1_0ff84b05eb"/>
     <path d="
M0 0.190958
C0.0506425 0.190958 0.0992177 0.170837 0.135027 0.135027
C0.170837 0.0992177 0.190958 0.0506425 0.190958 0
C0.190958 -0.0506425 0.170837 -0.0992177 0.135027 -0.135027
C0.0992177 -0.170837 0.0506425 -0.190958 0 -0.190958
C-0.0506425 -0.190958 -0.0992177 -0.170837 -0.135027 -0.135027
C-0.170837 -0.0992177 -0.190958 -0.0506425 -0.190958 0
C-0.190958 0.0506425 -0.170837 0.0992177 -0.135027 0.135027
C-0.0992177 0.170837 -0.0506425 0.190958 0 0.190958
z
" id="C0_2_f471e8ec4e"/>
     <path d="
M0 3.27477
C0.868479 3.27477 1.7015 2.92972 2.31561 2.31561
C2.92972 1.7015 3.27477 0.868479 3.27477 0
C3.27477 -0.868479 2.92972 -1.7015 2.31561 -2.31561
C1.7015 -2.92972 0.868479 -3.27477 0 -3.27477
C-0.868479 -3.27477 -1.7015 -2.92972 -2.31561 -2.31561
C-2.92972 -1.7015 -3.27477 -0.868479 -3.27477 0
C-3.27477 0.868479 -2.92972 1.7015 -2.31561 2.31561
C-1.7015 2.92972 -0.868479 3.27477 0 3.27477
z
" id="C0_3_b00e3569e0"/>
     <path d="
M0 2.74792
C0.728758 2.74792 1.42777 2.45838 1.94308 1.94308
C2.45838 1.42777 2.74792 0.728758 2.74792 0
C2.74792 -0.728758 2.45838 -1.42777 1.94308 -1.94308
C1.42777 -2.45838 0.728758 -2.74792 0 -2.74792
C-0.728758 -2.74792 -1.42777 -2.45838 -1.94308 -1.94308
C-2.45838 -1.42777 -2.74792 -0.728758 -2.74792 0
C-2.74792 0.728758 -2.45838 1.42777 -1.94308 1.94308
C-1.42777 2.45838 -0.728758 2.74792 0 2.74792
z
" id="C0_4_1e7783c96d"/>
     <path d="
M0 3.05171
C0.809323 3.05171 1.58561 2.73016 2.15789 2.15789
C2.73016 1.58561 3.05171 0.809323 3.05171 0
C3.05171 -0.809323 2.73016 -1.58561 2.15789 -2.15789
C1.58561 -2.73016 0.809323 -3.05171 0 -3.05171
C-0.809323 -3.05171 -1.58561 -2.73016 -2.15789 -2.15789
C-2.73016 -1.58561 -3.05171 -0.809323 -3.05171 0
C-3.05171 0.809323 -2.73016 1.58561 -2.15789 2.15789
C-1.58561 2.73016 -0.809323 3.05171 0 3.05171
z
" id="C0_5_a815c8e319"/>
     <path d="
M0 0.5804
C0.153924 0.5804 0.301564 0.519245 0.410405 0.410405
C0.519245 0.301564 0.5804 0.153924 0.5804 0
C0.5804 -0.153924 0.519245 -0.301564 0.410405 -0.410405
C0.301564 -0.519245 0.153924 -0.5804 0 -0.5804
C-0.153924 -0.5804 -0.301564 -0.519245 -0.410405 -0.410405
C-0.519245 -0.301564 -0.5804 -0.153924 -0.5804 0
C-0.5804 0.153924 -0.519245 0.301564 -0.410405 0.410405
C-0.301564 0.519245 -0.153924 0.5804 0 0.5804
z
" id="C0_6_f3013043f9"/>
     <path d="
M0 1.37083
C0.363548 1.37083 0.712256 1.22639 0.969323 0.969323
C1.22639 0.712256 1.37083 0.363548 1.37083 0
C1.37083 -0.363548 1.22639 -0.712256 0.969323 -0.969323
C0.712256 -1.22639 0.363548 -1.37083 0 -1.37083
C-0.363548 -1.37083 -0.712256 -1.22639 -0.969323 -0.969323
C-1.22639 -0.712256 -1.37083 -0.363548 -1.37083 0
C-1.37083 0.363548 -1.22639 0.712256 -0.969323 0.969323
C-0.712256 1.22639 -0.363548 1.37083 0 1.37083
z
" id="C0_7_295605b85f"/>
     <path d="
M0 0.329264
C0.0873219 0.329264 0.171079 0.294571 0.232825 0.232825
C0.294571 0.171079 0.329264 0.0873219 0.329264 0
C0.329264 -0.0873219 0.294571 -0.171079 0.232825 -0.232825
C0.171079 -0.294571 0.0873219 -0.329264 0 -0.329264
C-0.0873219 -0.329264 -0.171079 -0.294571 -0.232825 -0.232825
C-0.294571 -0.171079 -0.329264 -0.0873219 -0.329264 0
C-0.329264 0.0873219 -0.294571 0.171079 -0.232825 0.232825
C-0.171079 0.294571 -0.0873219 0.329264 0 0.329264
z
" id="C0_8_668fa5124b"/>
     <path d="
M0 1.40344
C0.372197 1.40344 0.729199 1.25556 0.992382 0.992382
C1.25556 0.729199 1.40344 0.372197 1.40344 0
C1.40344 -0.372197 1.25556 -0.729199 0.992382 -0.992382
C0.729199 -1.25556 0.372197 -1.40344 0 -1.40344
C-0.372197 -1.40344 -0.729199 -1.25556 -0.992382 -0.992382
C-1.25556 -0.729199 -1.40344 -0.372197 -1.40344 0
C-1.40344 0.372197 -1.25556 0.729199 -0.992382 0.992382
C-0.729199 1.25556 -0.372197 1.40344 0 1.40344
z
" id="C0_9_8e44062ee3"/>
     <path d="
M0 3.21495
C0.852615 3.21495 1.67042 2.8762 2.27331 2.27331
C2.8762 1.67042 3.21495 0.852615 3.21495 0
C3.21495 -0.852615 2.8762 -1.67042 2.27331 -2.27331
C1.67042 -2.8762 0.852615 -3.21495 0 -3.21495
C-0.852615 -3.21495 -1.67042 -2.8762 -2.27331 -2.27331
C-2.8762 -1.67042 -3.21495 -0.852615 -3.21495 0
C-3.21495 0.852615 -2.8762 1.67042 -2.27331 2.27331
C-1.67042 2.8762 -0.852615 3.21495 0 3.21495
z
" id="C0_a_b79bb4f09b"/>
     <path d="
M0 2.58706
C0.686097 2.58706 1.34419 2.31447 1.82933 1.82933
C2.31447 1.34419 2.58706 0.686097 2.58706 0
C2.58706 -0.686097 2.31447 -1.34419 1.82933 -1.82933
C1.34419 -2.31447 0.686097 -2.58706 0 -2.58706
C-0.686097 -2.58706 -1.34419 -2.31447 -1.82933 -1.82933
C-2.31447 -1.34419 -2.58706 -0.686097 -2.58706 0
C-2.58706 0.686097 -2.31447 1.34419 -1.82933 1.82933
C-1.34419 2.31447 -0.686097 2.58706 0 2.58706
z
" id="C0_b_d98a4c58fe"/>
     <path d="
M0 2.26433
C0.600508 2.26433 1.1765 2.02575 1.60113 1.60113
C2.02575 1.1765 2.26433 0.600508 2.26433 0
C2.26433 -0.600508 2.02575 -1.1765 1.60113 -1.60113
C1.1765 -2.02575 0.600508 -2.26433 0 -2.26433
C-0.600508 -2.26433 -1.1765 -2.02575 -1.60113 -1.60113
C-2.02575 -1.1765 -2.26433 -0.600508 -2.26433 0
C-2.26433 0.600508 -2.02575 1.1765 -1.60113 1.60113
C-1.1765 2.02575 -0.600508 2.26433 0 2.26433
z
" id="C0_c_1fe60a0ec5"/>
     <path d="
M0 2.7763
C0.736283 2.7763 1.44251 2.48377 1.96314 1.96314
C2.48377 1.44251 2.7763 0.736283 2.7763 0
C2.7763 -0.736283 2.48377 -1.44251 1.96314 -1.96314
C1.44251 -2.48377 0.736283 -2.7763 0 -2.7763
C-0.736283 -2.7763 -1.44251 -2.48377 -1.96314 -1.96314
C-2.48377 -1.44251 -2.7763 -0.736283 -2.7763 0
C-2.7763 0.736283 -2.48377 1.44251 -1.96314 1.96314
C-1.44251 2.48377 -0.736283 2.7763 0 2.7763
z
" id="C0_d_04b391c0e6"/>
     <path d="
M0 2.6876
C0.71276 2.6876 1.39642 2.40442 1.90042 1.90042
C2.40442 1.39642 2.6876 0.71276 2.6876 0
C2.6876 -0.71276 2.40442 -1.39642 1.90042 -1.90042
C1.39642 -2.40442 0.71276 -2.6876 0 -2.6876
C-0.71276 -2.6876 -1.39642 -2.40442 -1.90042 -1.90042
C-2.40442 -1.39642 -2.6876 -0.71276 -2.6876 0
C-2.6876 0.71276 -2.40442 1.39642 -1.90042 1.90042
C-1.39642 2.40442 -0.71276 2.6876 0 2.6876
z
" id="C0_e_5f164071c8"/>
     <path d="
M0 2.8503
C0.755908 2.8503 1.48096 2.54997 2.01547 2.01547
C2.54997 1.48096 2.8503 0.755908 2.8503 0
C2.8503 -0.755908 2.54997 -1.48096 2.01547 -2.01547
C1.48096 -2.54997 0.755908 -2.8503 0 -2.8503
C-0.755908 -2.8503 -1.48096 -2.54997 -2.01547 -2.01547
C-2.54997 -1.48096 -2.8503 -0.755908 -2.8503 0
C-2.8503 0.755908 -2.54997 1.48096 -2.01547 2.01547
C-1.48096 2.54997 -0.755908 2.8503 0 2.8503
z
" id="C0_f_f0cfa57198"/>
     <path d="
M0 2.34192
C0.621083 2.34192 1.21681 2.09516 1.65598 1.65598
C2.09516 1.21681 2.34192 0.621083 2.34192 0
C2.34192 -0.621083 2.09516 -1.21681 1.65598 -1.65598
C1.21681 -2.09516 0.621083 -2.34192 0 -2.34192
C-0.621083 -2.34192 -1.21681 -2.09516 -1.65598 -1.65598
C-2.09516 -1.21681 -2.34192 -0.621083 -2.34192 0
C-2.34192 0.621083 -2.09516 1.21681 -1.65598 1.65598
C-1.21681 2.09516 -0.621083 2.34192 0 2.34192
z
" id="C0_10_538caf66da"/>
     <path d="
M0 3.28829
C0.872066 3.28829 1.70853 2.94182 2.32517 2.32517
C2.94182 1.70853 3.28829 0.872066 3.28829 0
C3.28829 -0.872066 2.94182 -1.70853 2.32517 -2.32517
C1.70853 -2.94182 0.872066 -3.28829 0 -3.28829
C-0.872066 -3.28829 -1.70853 -2.94182 -2.32517 -2.32517
C-2.94182 -1.70853 -3.28829 -0.872066 -3.28829 0
C-3.28829 0.872066 -2.94182 1.70853 -2.32517 2.32517
C-1.70853 2.94182 -0.872066 3.28829 0 3.28829
z
" id="C0_11_fb37df69a3"/>
     <path d="
M0 2.92394
C0.775439 2.92394 1.51922 2.61586 2.06754 2.06754
C2.61586 1.51922 2.92394 0.775439 2.92394 0
C2.92394 -0.775439 2.61586 -1.51922 2.06754 -2.06754
C1.51922 -2.61586 0.775439 -2.92394 0 -2.92394
C-0.775439 -2.92394 -1.51922 -2.61586 -2.06754 -2.06754
C-2.61586 -1.51922 -2.92394 -0.775439 -2.92394 0
C-2.92394 0.775439 -2.61586 1.51922 -2.06754 2.06754
C-1.51922 2.61586 -0.775439 2.92394 0 2.92394
z
" id="C0_12_ab768aa230"/>
     <path d="
M0 2.97512
C0.789012 2.97512 1.54581 2.66165 2.10373 2.10373
C2.66165 1.54581 2.97512 0.789012 2.97512 0
C2.97512 -0.789012 2.66165 -1.54581 2.10373 -2.10373
C1.54581 -2.66165 0.789012 -2.97512 0 -2.97512
C-0.789012 -2.97512 -1.54581 -2.66165 -2.10373 -2.10373
C-2.66165 -1.54581 -2.97512 -0.789012 -2.97512 0
C-2.97512 0.789012 -2.66165 1.54581 -2.10373 2.10373
C-1.54581 2.66165 -0.789012 2.97512 0 2.97512
z
" id="C0_13_e6cb5e5957"/>
     <path d="
M0 2.49966
C0.662918 2.49966 1.29877 2.23628 1.76753 1.76753
C2.23628 1.29877 2.49966 0.662918 2.49966 0
C2.49966 -0.662918 2.23628 -1.29877 1.76753 -1.76753
C1.29877 -2.23628 0.662918 -2.49966 0 -2.49966
C-0.662918 -2.49966 -1.29877 -2.23628 -1.76753 -1.76753
C-2.23628 -1.29877 -2.49966 -0.662918 -2.49966 0
C-2.49966 0.662918 -2.23628 1.29877 -1.76753 1.76753
C-1.29877 2.23628 -0.662918 2.49966 0 2.49966
z
" id="C0_14_b29f4cab94"/>
     <path d="
M0 3.3986
C0.901319 3.3986 1.76584 3.0405 2.40317 2.40317
C3.0405 1.76584 3.3986 0.901319 3.3986 0
C3.3986 -0.901319 3.0405 -1.76584 2.40317 -2.40317
C1.76584 -3.0405 0.901319 -3.3986 0 -3.3986
C-0.901319 -3.3986 -1.76584 -3.0405 -2.40317 -2.40317
C-3.0405 -1.76584 -3.3986 -0.901319 -3.3986 0
C-3.3986 0.901319 -3.0405 1.76584 -2.40317 2.40317
C-1.76584 3.0405 -0.901319 3.3986 0 3.3986
z
" id="C0_15_6522c2a231"/>
     <path d="
M0 3.43154
C0.910056 3.43154 1.78296 3.06997 2.42647 2.42647
C3.06997 1.78296 3.43154 0.910056 3.43154 0
C3.43154 -0.910056 3.06997 -1.78296 2.42647 -2.42647
C1.78296 -3.06997 0.910056 -3.43154 0 -3.43154
C-0.910056 -3.43154 -1.78296 -3.06997 -2.42647 -2.42647
C-3.06997 -1.78296 -3.43154 -0.910056 -3.43154 0
C-3.43154 0.910056 -3.06997 1.78296 -2.42647 2.42647
C-1.78296 3.06997 -0.910056 3.43154 0 3.43154
z
" id="C0_16_bd9f12e087"/>
     <path d="
M0 3.36555
C0.892555 3.36555 1.74867 3.01094 2.3798 2.3798
C3.01094 1.74867 3.36555 0.892555 3.36555 0
C3.36555 -0.892555 3.01094 -1.74867 2.3798 -2.3798
C1.74867 -3.01094 0.892555 -3.36555 0 -3.36555
C-0.892555 -3.36555 -1.74867 -3.01094 -2.3798 -2.3798
C-3.01094 -1.74867 -3.36555 -0.892555 -3.36555 0
C-3.36555 0.892555 -3.01094 1.74867 -2.3798 2.3798
C-1.74867 3.01094 -0.892555 3.36555 0 3.36555
z
" id="C0_17_7f11f7bdf4"/>
     <path d="
M0 2.07105
C0.549249 2.07105 1.07608 1.85283 1.46445 1.46445
C1.85283 1.07608 2.07105 0.549249 2.07105 0
C2.07105 -0.549249 1.85283 -1.07608 1.46445 -1.46445
C1.07608 -1.85283 0.549249 -2.07105 0 -2.07105
C-0.549249 -2.07105 -1.07608 -1.85283 -1.46445 -1.46445
C-1.85283 -1.07608 -2.07105 -0.549249 -2.07105 0
C-2.07105 0.549249 -1.85283 1.07608 -1.46445 1.46445
C-1.07608 1.85283 -0.549249 2.07105 0 2.07105
z
" id="C0_18_51497fe17f"/>
     <path d="
M0 3.3834
C0.897289 3.3834 1.75795 3.0269 2.39243 2.39243
C3.0269 1.75795 3.3834 0.897289 3.3834 0
C3.3834 -0.897289 3.0269 -1.75795 2.39243 -2.39243
C1.75795 -3.0269 0.897289 -3.3834 0 -3.3834
C-0.897289 -3.3834 -1.75795 -3.0269 -2.39243 -2.39243
C-3.0269 -1.75795 -3.3834 -0.897289 -3.3834 0
C-3.3834 0.897289 -3.0269 1.75795 -2.39243 2.39243
C-1.75795 3.0269 -0.897289 3.3834 0 3.3834
z
" id="C0_19_1ad2fbebe2"/>
     <path d="
M0 2.70345
C0.716964 2.70345 1.40466 2.4186 1.91163 1.91163
C2.4186 1.40466 2.70345 0.716964 2.70345 0
C2.70345 -0.716964 2.4186 -1.40466 1.91163 -1.91163
C1.40466 -2.4186 0.716964 -2.70345 0 -2.70345
C-0.716964 -2.70345 -1.40466 -2.4186 -1.91163 -1.91163
C-2.4186 -1.40466 -2.70345 -0.716964 -2.70345 0
C-2.70345 0.716964 -2.4186 1.40466 -1.91163 1.91163
C-1.40466 2.4186 -0.716964 2.70345 0 2.70345
z
" id="C0_1a_4513ccfd06"/>
     <path d="
M0 3.37293
C0.894511 3.37293 1.75251 3.01754 2.38502 2.38502
C3.01754 1.75251 3.37293 0.894511 3.37293 0
C3.37293 -0.894511 3.01754 -1.75251 2.38502 -2.38502
C1.75251 -3.01754 0.894511 -3.37293 0 -3.37293
C-0.894511 -3.37293 -1.75251 -3.01754 -2.38502 -2.38502
C-3.01754 -1.75251 -3.37293 -0.894511 -3.37293 0
C-3.37293 0.894511 -3.01754 1.75251 -2.38502 2.38502
C-1.75251 3.01754 -0.894511 3.37293 0 3.37293
z
" id="C0_1b_8ee066814b"/>
     <path d="
M0 3.35651
C0.890156 3.35651 1.74397 3.00284 2.37341 2.37341
C3.00284 1.74397 3.35651 0.890156 3.35651 0
C3.35651 -0.890156 3.00284 -1.74397 2.37341 -2.37341
C1.74397 -3.00284 0.890156 -3.35651 0 -3.35651
C-0.890156 -3.35651 -1.74397 -3.00284 -2.37341 -2.37341
C-3.00284 -1.74397 -3.35651 -0.890156 -3.35651 0
C-3.35651 0.890156 -3.00284 1.74397 -2.37341 2.37341
C-1.74397 3.00284 -0.890156 3.35651 0 3.35651
z
" id="C0_1c_bb01bf77de"/>
     <path d="
M0 3.01935
C0.800741 3.01935 1.56879 2.70121 2.135 2.135
C2.70121 1.56879 3.01935 0.800741 3.01935 0
C3.01935 -0.800741 2.70121 -1.56879 2.135 -2.135
C1.56879 -2.70121 0.800741 -3.01935 0 -3.01935
C-0.800741 -3.01935 -1.56879 -2.70121 -2.135 -2.135
C-2.70121 -1.56879 -3.01935 -0.800741 -3.01935 0
C-3.01935 0.800741 -2.70121 1.56879 -2.135 2.135
C-1.56879 2.70121 -0.800741 3.01935 0 3.01935
z
" id="C0_1d_f039645ed8"/>
     <path d="
M0 2.98611
C0.791925 2.98611 1.55152 2.67147 2.1115 2.1115
C2.67147 1.55152 2.98611 0.791925 2.98611 0
C2.98611 -0.791925 2.67147 -1.55152 2.1115 -2.1115
C1.55152 -2.67147 0.791925 -2.98611 0 -2.98611
C-0.791925 -2.98611 -1.55152 -2.67147 -2.1115 -2.1115
C-2.67147 -1.55152 -2.98611 -0.791925 -2.98611 0
C-2.98611 0.791925 -2.67147 1.55152 -2.1115 2.1115
C-1.55152 2.67147 -0.791925 2.98611 0 2.98611
z
" id="C0_1e_dc58449cd2"/>
     <path d="
M0 1.92125
C0.509521 1.92125 0.998241 1.71881 1.35853 1.35853
C1.71881 0.998241 1.92125 0.509521 1.92125 0
C1.92125 -0.509521 1.71881 -0.998241 1.35853 -1.35853
C0.998241 -1.71881 0.509521 -1.92125 0 -1.92125
C-0.509521 -1.92125 -0.998241 -1.71881 -1.35853 -1.35853
C-1.71881 -0.998241 -1.92125 -0.509521 -1.92125 0
C-1.92125 0.509521 -1.71881 0.998241 -1.35853 1.35853
C-0.998241 1.71881 -0.509521 1.92125 0 1.92125
z
" id="C0_1f_06208463e4"/>
     <path d="
M0 2.18999
C0.580792 2.18999 1.13788 1.95924 1.54856 1.54856
C1.95924 1.13788 2.18999 0.580792 2.18999 0
C2.18999 -0.580792 1.95924 -1.13788 1.54856 -1.54856
C1.13788 -1.95924 0.580792 -2.18999 0 -2.18999
C-0.580792 -2.18999 -1.13788 -1.95924 -1.54856 -1.54856
C-1.95924 -1.13788 -2.18999 -0.580792 -2.18999 0
C-2.18999 0.580792 -1.95924 1.13788 -1.54856 1.54856
C-1.13788 1.95924 -0.580792 2.18999 0 2.18999
z
" id="C0_20_f5a3a11d9e"/>
     <path d="
M0 2.43717
C0.646344 2.43717 1.2663 2.18037 1.72334 1.72334
C2.18037 1.2663 2.43717 0.646344 2.43717 0
C2.43717 -0.646344 2.18037 -1.2663 1.72334 -1.72334
C1.2663 -2.18037 0.646344 -2.43717 0 -2.43717
C-0.646344 -2.43717 -1.2663 -2.18037 -1.72334 -1.72334
C-2.18037 -1.2663 -2.43717 -0.646344 -2.43717 0
C-2.43717 0.646344 -2.18037 1.2663 -1.72334 1.72334
C-1.2663 2.18037 -0.646344 2.43717 0 2.43717
z
" id="C0_21_441f028fd0"/>
     <path d="
M0 1.65675
C0.439376 1.65675 0.860816 1.48219 1.1715 1.1715
C1.48219 0.860816 1.65675 0.439376 1.65675 0
C1.65675 -0.439376 1.48219 -0.860816 1.1715 -1.1715
C0.860816 -1.48219 0.439376 -1.65675 0 -1.65675
C-0.439376 -1.65675 -0.860816 -1.48219 -1.1715 -1.1715
C-1.48219 -0.860816 -1.65675 -0.439376 -1.65675 0
C-1.65675 0.439376 -1.48219 0.860816 -1.1715 1.1715
C-0.860816 1.48219 -0.439376 1.65675 0 1.65675
z
" id="C0_22_d239014cbd"/>
     <path d="
M0 2.3601
C0.625905 2.3601 1.22626 2.11142 1.66884 1.66884
C2.11142 1.22626 2.3601 0.625905 2.3601 0
C2.3601 -0.625905 2.11142 -1.22626 1.66884 -1.66884
C1.22626 -2.11142 0.625905 -2.3601 0 -2.3601
C-0.625905 -2.3601 -1.22626 -2.11142 -1.66884 -1.66884
C-2.11142 -1.22626 -2.3601 -0.625905 -2.3601 0
C-2.3601 0.625905 -2.11142 1.22626 -1.66884 1.66884
C-1.22626 2.11142 -0.625905 2.3601 0 2.3601
z
" id="C0_23_392de69e2d"/>
     <path d="
M0 2.94398
C0.780752 2.94398 1.52963 2.63378 2.08171 2.08171
C2.63378 1.52963 2.94398 0.780752 2.94398 0
C2.94398 -0.780752 2.63378 -1.52963 2.08171 -2.08171
C1.52963 -2.63378 0.780752 -2.94398 0 -2.94398
C-0.780752 -2.94398 -1.52963 -2.63378 -2.08171 -2.08171
C-2.63378 -1.52963 -2.94398 -0.780752 -2.94398 0
C-2.94398 0.780752 -2.63378 1.52963 -2.08171 2.08171
C-1.52963 2.63378 -0.780752 2.94398 0 2.94398
z
" id="C0_24_63366bbea7"/>
     <path d="
M0 1.52524
C0.404498 1.52524 0.792484 1.36453 1.07851 1.07851
C1.36453 0.792484 1.52524 0.404498 1.52524 0
C1.52524 -0.404498 1.36453 -0.792484 1.07851 -1.07851
C0.792484 -1.36453 0.404498 -1.52524 0 -1.52524
C-0.404498 -1.52524 -0.792484 -1.36453 -1.07851 -1.07851
C-1.36453 -0.792484 -1.52524 -0.404498 -1.52524 0
C-1.52524 0.404498 -1.36453 0.792484 -1.07851 1.07851
C-0.792484 1.36453 -0.404498 1.52524 0 1.52524
z
" id="C0_25_776e42759f"/>
     <path d="
M0 1.48708
C0.394379 1.48708 0.772658 1.33039 1.05153 1.05153
C1.33039 0.772658 1.48708 0.394379 1.48708 0
C1.48708 -0.394379 1.33039 -0.772658 1.05153 -1.05153
C0.772658 -1.33039 0.394379 -1.48708 0 -1.48708
C-0.394379 -1.48708 -0.772658 -1.33039 -1.05153 -1.05153
C-1.33039 -0.772658 -1.48708 -0.394379 -1.48708 0
C-1.48708 0.394379 -1.33039 0.772658 -1.05153 1.05153
C-0.772658 1.33039 -0.394379 1.48708 0 1.48708
z
" id="C0_26_e7c6182319"/>
     <path d="
M0 1.67052
C0.443026 1.67052 0.867966 1.4945 1.18123 1.18123
C1.4945 0.867966 1.67052 0.443026 1.67052 0
C1.67052 -0.443026 1.4945 -0.867966 1.18123 -1.18123
C0.867966 -1.4945 0.443026 -1.67052 0 -1.67052
C-0.443026 -1.67052 -0.867966 -1.4945 -1.18123 -1.18123
C-1.4945 -0.867966 -1.67052 -0.443026 -1.67052 0
C-1.67052 0.443026 -1.4945 0.867966 -1.18123 1.18123
C-0.867966 1.4945 -0.443026 1.67052 0 1.67052
z
" id="C0_27_50d6bc0d5e"/>
     <path d="
M0 3.41421
C0.905458 3.41421 1.77395 3.05446 2.41421 2.41421
C3.05446 1.77395 3.41421 0.905458 3.41421 0
C3.41421 -0.905458 3.05446 -1.77395 2.41421 -2.41421
C1.77395 -3.05446 0.905458 -3.41421 0 -3.41421
C-0.905458 -3.41421 -1.77395 -3.05446 -2.41421 -2.41421
C-3.05446 -1.77395 -3.41421 -0.905458 -3.41421 0
C-3.41421 0.905458 -3.05446 1.77395 -2.41421 2.41421
C-1.77395 3.05446 -0.905458 3.41421 0 3.41421
z
" id="C0_28_41b3d44c36"/>
     <path d="
M0 2.27241
C0.602651 2.27241 1.1807 2.03298 1.60684 1.60684
C2.03298 1.1807 2.27241 0.602651 2.27241 0
C2.27241 -0.602651 2.03298 -1.1807 1.60684 -1.60684
C1.1807 -2.03298 0.602651 -2.27241 0 -2.27241
C-0.602651 -2.27241 -1.1807 -2.03298 -1.60684 -1.60684
C-2.03298 -1.1807 -2.27241 -0.602651 -2.27241 0
C-2.27241 0.602651 -2.03298 1.1807 -1.60684 1.60684
C-1.1807 2.03298 -0.602651 2.27241 0 2.27241
z
" id="C0_29_a905b64e5b"/>
     <path d="
M0 1.13375
C0.300675 1.13375 0.589075 1.01429 0.801685 0.801685
C1.01429 0.589075 1.13375 0.300675 1.13375 0
C1.13375 -0.300675 1.01429 -0.589075 0.801685 -0.801685
C0.589075 -1.01429 0.300675 -1.13375 0 -1.13375
C-0.300675 -1.13375 -0.589075 -1.01429 -0.801685 -0.801685
C-1.01429 -0.589075 -1.13375 -0.300675 -1.13375 0
C-1.13375 0.300675 -1.01429 0.589075 -0.801685 0.801685
C-0.589075 1.01429 -0.300675 1.13375 0 1.13375
z
" id="C0_2a_0065185c71"/>
     <path d="
M0 3.01874
C0.800578 3.01874 1.56847 2.70066 2.13457 2.13457
C2.70066 1.56847 3.01874 0.800578 3.01874 0
C3.01874 -0.800578 2.70066 -1.56847 2.13457 -2.13457
C1.56847 -2.70066 0.800578 -3.01874 0 -3.01874
C-0.800578 -3.01874 -1.56847 -2.70066 -2.13457 -2.13457
C-2.70066 -1.56847 -3.01874 -0.800578 -3.01874 0
C-3.01874 0.800578 -2.70066 1.56847 -2.13457 2.13457
C-1.56847 2.70066 -0.800578 3.01874 0 3.01874
z
" id="C0_2b_3b48e47bbf"/>
     <path d="
M0 2.16486
C0.574127 2.16486 1.12482 1.93675 1.53079 1.53079
C1.93675 1.12482 2.16486 0.574127 2.16486 0
C2.16486 -0.574127 1.93675 -1.12482 1.53079 -1.53079
C1.12482 -1.93675 0.574127 -2.16486 0 -2.16486
C-0.574127 -2.16486 -1.12482 -1.93675 -1.53079 -1.53079
C-1.93675 -1.12482 -2.16486 -0.574127 -2.16486 0
C-2.16486 0.574127 -1.93675 1.12482 -1.53079 1.53079
C-1.12482 1.93675 -0.574127 2.16486 0 2.16486
z
" id="C0_2c_92250dae39"/>
     <path d="
M0 3.03719
C0.805471 3.03719 1.57806 2.71717 2.14761 2.14761
C2.71717 1.57806 3.03719 0.805471 3.03719 0
C3.03719 -0.805471 2.71717 -1.57806 2.14761 -2.14761
C1.57806 -2.71717 0.805471 -3.03719 0 -3.03719
C-0.805471 -3.03719 -1.57806 -2.71717 -2.14761 -2.14761
C-2.71717 -1.57806 -3.03719 -0.805471 -3.03719 0
C-3.03719 0.805471 -2.71717 1.57806 -2.14761 2.14761
C-1.57806 2.71717 -0.805471 3.03719 0 3.03719
z
" id="C0_2d_9df977c155"/>
     <path d="
M0 2.96673
C0.786786 2.96673 1.54145 2.65414 2.0978 2.0978
C2.65414 1.54145 2.96673 0.786786 2.96673 0
C2.96673 -0.786786 2.65414 -1.54145 2.0978 -2.0978
C1.54145 -2.65414 0.786786 -2.96673 0 -2.96673
C-0.786786 -2.96673 -1.54145 -2.65414 -2.0978 -2.0978
C-2.65414 -1.54145 -2.96673 -0.786786 -2.96673 0
C-2.96673 0.786786 -2.65414 1.54145 -2.0978 2.0978
C-1.54145 2.65414 -0.786786 2.96673 0 2.96673
z
" id="C0_2e_d9faa29300"/>
     <path d="
M0 3.14266
C0.833443 3.14266 1.63286 2.81153 2.2222 2.2222
C2.81153 1.63286 3.14266 0.833443 3.14266 0
C3.14266 -0.833443 2.81153 -1.63286 2.2222 -2.2222
C1.63286 -2.81153 0.833443 -3.14266 0 -3.14266
C-0.833443 -3.14266 -1.63286 -2.81153 -2.2222 -2.2222
C-2.81153 -1.63286 -3.14266 -0.833443 -3.14266 0
C-3.14266 0.833443 -2.81153 1.63286 -2.2222 2.2222
C-1.63286 2.81153 -0.833443 3.14266 0 3.14266
z
" id="C0_2f_324c6e61e5"/>
     <path d="
M0 3.21379
C0.852306 3.21379 1.66982 2.87516 2.27249 2.27249
C2.87516 1.66982 3.21379 0.852306 3.21379 0
C3.21379 -0.852306 2.87516 -1.66982 2.27249 -2.27249
C1.66982 -2.87516 0.852306 -3.21379 0 -3.21379
C-0.852306 -3.21379 -1.66982 -2.87516 -2.27249 -2.27249
C-2.87516 -1.66982 -3.21379 -0.852306 -3.21379 0
C-3.21379 0.852306 -2.87516 1.66982 -2.27249 2.27249
C-1.66982 2.87516 -0.852306 3.21379 0 3.21379
z
" id="C0_30_b2711b2457"/>
     <path d="
M0 2.73929
C0.726468 2.73929 1.42328 2.45066 1.93697 1.93697
C2.45066 1.42328 2.73929 0.726468 2.73929 0
C2.73929 -0.726468 2.45066 -1.42328 1.93697 -1.93697
C1.42328 -2.45066 0.726468 -2.73929 0 -2.73929
C-0.726468 -2.73929 -1.42328 -2.45066 -1.93697 -1.93697
C-2.45066 -1.42328 -2.73929 -0.726468 -2.73929 0
C-2.73929 0.726468 -2.45066 1.42328 -1.93697 1.93697
C-1.42328 2.45066 -0.726468 2.73929 0 2.73929
z
" id="C0_31_50ec84507e"/>
    </defs>
    <g clip-path="url(#p7ff5b81e1d)">
     <use style="fill:#ff2900;fill-opacity:0.5;stroke:#000000;stroke-opacity:0.5;" x="364.363931725" xlink:href="#C0_0_071362156c" y="228.673585882"/>
    </g>
    <g clip-path="url(#p7ff5b81e1d)">
     <use style="fill:#000080;fill-opacity:0.5;stroke:#000000;stroke-opacity:0.5;" x="327.525798434" xlink:href="#C0_1_0ff84b05eb" y="334.932204324"/>
    </g>
    <g clip-path="url(#p7ff5b81e1d)">
     <use style="fill:#920000;fill-opacity:0.5;stroke:#000000;stroke-opacity:0.5;" x="364.136849257" xlink:href="#C0_2_f471e8ec4e" y="290.574582315"/>
    </g>
    <g clip-path="url(#p7ff5b81e1d)">
     <use style="fill:#ff2500;fill-opacity:0.5;stroke:#000000;stroke-opacity:0.5;" x="306.789592288" xlink:href="#C0_3_b00e3569e0" y="249.047802388"/>
    </g>
    <g clip-path="url(#p7ff5b81e1d)">
     <use style="fill:#90ff66;fill-opacity:0.5;stroke:#000000;stroke-opacity:0.5;" x="380.617396491" xlink:href="#C0_4_1e7783c96d" y="218.88502874"/>
    </g>
    <g clip-path="url(#p7ff5b81e1d)">
     <use style="fill:#13fce4;fill-opacity:0.5;stroke:#000000;stroke-opacity:0.5;" x="339.399109027" xlink:href="#C0_5_a815c8e319" y="222.160799752"/>
    </g>
    <g clip-path="url(#p7ff5b81e1d)">
     <use style="fill:#2cffca;fill-opacity:0.5;stroke:#000000;stroke-opacity:0.5;" x="451.104793485" xlink:href="#C0_6_f3013043f9" y="242.188258462"/>
    </g>
    <g clip-path="url(#p7ff5b81e1d)">
     <use style="fill:#ff6800;fill-opacity:0.5;stroke:#000000;stroke-opacity:0.5;" x="437.106483509" xlink:href="#C0_7_295605b85f" y="106.533356056"/>
    </g>
    <g clip-path="url(#p7ff5b81e1d)">
     <use style="fill:#9b0000;fill-opacity:0.5;stroke:#000000;stroke-opacity:0.5;" x="362.274921894" xlink:href="#C0_8_668fa5124b" y="159.288833327"/>
    </g>
    <g clip-path="url(#p7ff5b81e1d)">
     <use style="fill:#a4ff53;fill-opacity:0.5;stroke:#000000;stroke-opacity:0.5;" x="360.487765051" xlink:href="#C0_9_8e44062ee3" y="308.976693037"/>
    </g>
    <g clip-path="url(#p7ff5b81e1d)">
     <use style="fill:#0004ff;fill-opacity:0.5;stroke:#000000;stroke-opacity:0.5;" x="296.103130928" xlink:href="#C0_a_b79bb4f09b" y="332.243303782"/>
    </g>
    <g clip-path="url(#p7ff5b81e1d)">
     <use style="fill:#00ccff;fill-opacity:0.5;stroke:#000000;stroke-opacity:0.5;" x="200.415728965" xlink:href="#C0_b_d98a4c58fe" y="138.114661751"/>
    </g>
    <g clip-path="url(#p7ff5b81e1d)">
     <use style="fill:#1cffdb;fill-opacity:0.5;stroke:#000000;stroke-opacity:0.5;" x="412.262254133" xlink:href="#C0_c_1fe60a0ec5" y="262.376629421"/>
    </g>
    <g clip-path="url(#p7ff5b81e1d)">
     <use style="fill:#000089;fill-opacity:0.5;stroke:#000000;stroke-opacity:0.5;" x="423.195553738" xlink:href="#C0_d_04b391c0e6" y="96.7997154845"/>
    </g>
    <g clip-path="url(#p7ff5b81e1d)">
     <use style="fill:#00e0fb;fill-opacity:0.5;stroke:#000000;stroke-opacity:0.5;" x="137.526458735" xlink:href="#C0_e_5f164071c8" y="172.15942875"/>
    </g>
    <g clip-path="url(#p7ff5b81e1d)">
     <use style="fill:#c40000;fill-opacity:0.5;stroke:#000000;stroke-opacity:0.5;" x="449.555781125" xlink:href="#C0_f_f0cfa57198" y="309.239004767"/>
    </g>
    <g clip-path="url(#p7ff5b81e1d)">
     <use style="fill:#53ffa4;fill-opacity:0.5;stroke:#000000;stroke-opacity:0.5;" x="374.41726314" xlink:href="#C0_10_538caf66da" y="291.060664874"/>
    </g>
    <g clip-path="url(#p7ff5b81e1d)">
     <use style="fill:#0034ff;fill-opacity:0.5;stroke:#000000;stroke-opacity:0.5;" x="260.680144718" xlink:href="#C0_11_fb37df69a3" y="95.7205702838"/>
    </g>
    <g clip-path="url(#p7ff5b81e1d)">
     <use style="fill:#00c8ff;fill-opacity:0.5;stroke:#000000;stroke-opacity:0.5;" x="394.043269309" xlink:href="#C0_12_ab768aa230" y="175.240294638"/>
    </g>
    <g clip-path="url(#p7ff5b81e1d)">
     <use style="fill:#0058ff;fill-opacity:0.5;stroke:#000000;stroke-opacity:0.5;" x="352.235890261" xlink:href="#C0_13_e6cb5e5957" y="290.97236796"/>
    </g>
    <g clip-path="url(#p7ff5b81e1d)">
     <use style="fill:#ff5900;fill-opacity:0.5;stroke:#000000;stroke-opacity:0.5;" x="271.852136083" xlink:href="#C0_14_b29f4cab94" y="157.831459587"/>
    </g>
    <g clip-path="url(#p7ff5b81e1d)">
     <use style="fill:#0000e3;fill-opacity:0.5;stroke:#000000;stroke-opacity:0.5;" x="438.972873568" xlink:href="#C0_15_6522c2a231" y="269.240222256"/>
    </g>
    <g clip-path="url(#p7ff5b81e1d)">
     <use style="fill:#39ffbe;fill-opacity:0.5;stroke:#000000;stroke-opacity:0.5;" x="379.288064812" xlink:href="#C0_16_bd9f12e087" y="198.535834247"/>
    </g>
    <g clip-path="url(#p7ff5b81e1d)">
     <use style="fill:#00008d;fill-opacity:0.5;stroke:#000000;stroke-opacity:0.5;" x="413.658976186" xlink:href="#C0_17_7f11f7bdf4" y="123.714851791"/>
    </g>
    <g clip-path="url(#p7ff5b81e1d)">
     <use style="fill:#ff9400;fill-opacity:0.5;stroke:#000000;stroke-opacity:0.5;" x="269.734245802" xlink:href="#C0_18_51497fe17f" y="235.726291435"/>
    </g>
    <g clip-path="url(#p7ff5b81e1d)">
     <use style="fill:#23ffd4;fill-opacity:0.5;stroke:#000000;stroke-opacity:0.5;" x="443.299908582" xlink:href="#C0_19_1ad2fbebe2" y="215.457603703"/>
    </g>
    <g clip-path="url(#p7ff5b81e1d)">
     <use style="fill:#ff5900;fill-opacity:0.5;stroke:#000000;stroke-opacity:0.5;" x="196.43682003" xlink:href="#C0_1a_4513ccfd06" y="337.678074476"/>
    </g>
    <g clip-path="url(#p7ff5b81e1d)">
     <use style="fill:#0070ff;fill-opacity:0.5;stroke:#000000;stroke-opacity:0.5;" x="157.846495263" xlink:href="#C0_1b_8ee066814b" y="337.048850293"/>
    </g>
    <g clip-path="url(#p7ff5b81e1d)">
     <use style="fill:#0078ff;fill-opacity:0.5;stroke:#000000;stroke-opacity:0.5;" x="150.866979008" xlink:href="#C0_1c_bb01bf77de" y="250.998327318"/>
    </g>
    <g clip-path="url(#p7ff5b81e1d)">
     <use style="fill:#ff6000;fill-opacity:0.5;stroke:#000000;stroke-opacity:0.5;" x="410.455500066" xlink:href="#C0_1d_f039645ed8" y="272.075464118"/>
    </g>
    <g clip-path="url(#p7ff5b81e1d)">
     <use style="fill:#0000d1;fill-opacity:0.5;stroke:#000000;stroke-opacity:0.5;" x="381.063490985" xlink:href="#C0_1e_dc58449cd2" y="121.935240503"/>
    </g>
    <g clip-path="url(#p7ff5b81e1d)">
     <use style="fill:#d4ff23;fill-opacity:0.5;stroke:#000000;stroke-opacity:0.5;" x="245.914468255" xlink:href="#C0_1f_06208463e4" y="269.559446004"/>
    </g>
    <g clip-path="url(#p7ff5b81e1d)">
     <use style="fill:#b20000;fill-opacity:0.5;stroke:#000000;stroke-opacity:0.5;" x="228.852504923" xlink:href="#C0_20_f5a3a11d9e" y="260.448683041"/>
    </g>
    <g clip-path="url(#p7ff5b81e1d)">
     <use style="fill:#0038ff;fill-opacity:0.5;stroke:#000000;stroke-opacity:0.5;" x="284.774567028" xlink:href="#C0_21_441f028fd0" y="110.185243601"/>
    </g>
    <g clip-path="url(#p7ff5b81e1d)">
     <use style="fill:#800000;fill-opacity:0.5;stroke:#000000;stroke-opacity:0.5;" x="392.523596058" xlink:href="#C0_22_d239014cbd" y="334.303889905"/>
    </g>
    <g clip-path="url(#p7ff5b81e1d)">
     <use style="fill:#80ff77;fill-opacity:0.5;stroke:#000000;stroke-opacity:0.5;" x="451.620251168" xlink:href="#C0_23_392de69e2d" y="292.443255229"/>
    </g>
    <g clip-path="url(#p7ff5b81e1d)">
     <use style="fill:#87ff70;fill-opacity:0.5;stroke:#000000;stroke-opacity:0.5;" x="248.754641957" xlink:href="#C0_24_63366bbea7" y="160.453937601"/>
    </g>
    <g clip-path="url(#p7ff5b81e1d)">
     <use style="fill:#0010ff;fill-opacity:0.5;stroke:#000000;stroke-opacity:0.5;" x="220.743598043" xlink:href="#C0_25_776e42759f" y="222.506290753"/>
    </g>
    <g clip-path="url(#p7ff5b81e1d)">
     <use style="fill:#ff3800;fill-opacity:0.5;stroke:#000000;stroke-opacity:0.5;" x="290.282712666" xlink:href="#C0_26_e7c6182319" y="175.789949264"/>
    </g>
    <g clip-path="url(#p7ff5b81e1d)">
     <use style="fill:#0000f6;fill-opacity:0.5;stroke:#000000;stroke-opacity:0.5;" x="290.83121496" xlink:href="#C0_27_50d6bc0d5e" y="287.447213327"/>
    </g>
    <g clip-path="url(#p7ff5b81e1d)">
     <use style="fill:#ff3400;fill-opacity:0.5;stroke:#000000;stroke-opacity:0.5;" x="436.971638989" xlink:href="#C0_28_41b3d44c36" y="172.191446146"/>
    </g>
    <g clip-path="url(#p7ff5b81e1d)">
     <use style="fill:#0074ff;fill-opacity:0.5;stroke:#000000;stroke-opacity:0.5;" x="362.410384773" xlink:href="#C0_29_a905b64e5b" y="197.696986784"/>
    </g>
    <g clip-path="url(#p7ff5b81e1d)">
     <use style="fill:#ff3800;fill-opacity:0.5;stroke:#000000;stroke-opacity:0.5;" x="446.713433348" xlink:href="#C0_2a_0065185c71" y="202.998357417"/>
    </g>
    <g clip-path="url(#p7ff5b81e1d)">
     <use style="fill:#0ff8e7;fill-opacity:0.5;stroke:#000000;stroke-opacity:0.5;" x="429.986536535" xlink:href="#C0_2b_3b48e47bbf" y="108.391737358"/>
    </g>
    <g clip-path="url(#p7ff5b81e1d)">
     <use style="fill:#beff39;fill-opacity:0.5;stroke:#000000;stroke-opacity:0.5;" x="343.60943148" xlink:href="#C0_2c_92250dae39" y="246.783830439"/>
    </g>
    <g clip-path="url(#p7ff5b81e1d)">
     <use style="fill:#00a8ff;fill-opacity:0.5;stroke:#000000;stroke-opacity:0.5;" x="321.582803075" xlink:href="#C0_2d_9df977c155" y="234.374889481"/>
    </g>
    <g clip-path="url(#p7ff5b81e1d)">
     <use style="fill:#00e0fb;fill-opacity:0.5;stroke:#000000;stroke-opacity:0.5;" x="211.707883867" xlink:href="#C0_2e_d9faa29300" y="279.180925301"/>
    </g>
    <g clip-path="url(#p7ff5b81e1d)">
     <use style="fill:#ff2900;fill-opacity:0.5;stroke:#000000;stroke-opacity:0.5;" x="166.581451356" xlink:href="#C0_2f_324c6e61e5" y="203.49072184"/>
    </g>
    <g clip-path="url(#p7ff5b81e1d)">
     <use style="fill:#9f0000;fill-opacity:0.5;stroke:#000000;stroke-opacity:0.5;" x="155.986409793" xlink:href="#C0_30_b2711b2457" y="241.398589947"/>
    </g>
    <g clip-path="url(#p7ff5b81e1d)">
     <use style="fill:#00bcff;fill-opacity:0.5;stroke:#000000;stroke-opacity:0.5;" x="163.774999007" xlink:href="#C0_31_50ec84507e" y="289.758240601"/>
    </g>
   </g>
   <g id="matplotlib.axis_1">
    <g id="xtick_1">
     <g id="line2d_1">
      <defs>
       <path d="
M0 0
L0 -4" id="m93b0483c22" style="stroke:#000000;stroke-width:0.5;"/>
      </defs>
      <g>
       <use style="stroke:#000000;stroke-width:0.5;" x="72.0" xlink:href="#m93b0483c22" y="388.8"/>
      </g>
     </g>
     <g id="line2d_2">
      <defs>
       <path d="
M0 0
L0 4" id="m741efc42ff" style="stroke:#000000;stroke-width:0.5;"/>
      </defs>
      <g>
       <use style="stroke:#000000;stroke-width:0.5;" x="72.0" xlink:href="#m741efc42ff" y="43.2"/>
      </g>
     </g>
     <g id="text_1">
      <!-- −0.2 -->
      <defs>
       <path d="
M31.7812 66.4062
Q24.1719 66.4062 20.3281 58.9062
Q16.5 51.4219 16.5 36.375
Q16.5 21.3906 20.3281 13.8906
Q24.1719 6.39062 31.7812 6.39062
Q39.4531 6.39062 43.2812 13.8906
Q47.125 21.3906 47.125 36.375
Q47.125 51.4219 43.2812 58.9062
Q39.4531 66.4062 31.7812 66.4062
M31.7812 74.2188
Q44.0469 74.2188 50.5156 64.5156
Q56.9844 54.8281 56.9844 36.375
Q56.9844 17.9688 50.5156 8.26562
Q44.0469 -1.42188 31.7812 -1.42188
Q19.5312 -1.42188 13.0625 8.26562
Q6.59375 17.9688 6.59375 36.375
Q6.59375 54.8281 13.0625 64.5156
Q19.5312 74.2188 31.7812 74.2188" id="DejaVuSans-30"/>
       <path d="
M10.6875 12.4062
L21 12.4062
L21 0
L10.6875 0
z
" id="DejaVuSans-2e"/>
       <path d="
M19.1875 8.29688
L53.6094 8.29688
L53.6094 0
L7.32812 0
L7.32812 8.29688
Q12.9375 14.1094 22.625 23.8906
Q32.3281 33.6875 34.8125 36.5312
Q39.5469 41.8438 41.4219 45.5312
Q43.3125 49.2188 43.3125 52.7812
Q43.3125 58.5938 39.2344 62.25
Q35.1562 65.9219 28.6094 65.9219
Q23.9688 65.9219 18.8125 64.3125
Q13.6719 62.7031 7.8125 59.4219
L7.8125 69.3906
Q13.7656 71.7812 18.9375 73
Q24.125 74.2188 28.4219 74.2188
Q39.75 74.2188 46.4844 68.5469
Q53.2188 62.8906 53.2188 53.4219
Q53.2188 48.9219 51.5312 44.8906
Q49.8594 40.875 45.4062 35.4062
Q44.1875 33.9844 37.6406 27.2188
Q31.1094 20.4531 19.1875 8.29688" id="DejaVuSans-32"/>
       <path d="
M10.5938 35.5
L73.1875 35.5
L73.1875 27.2031
L10.5938 27.2031
z
" id="DejaVuSans-2212"/>
      </defs>
      <g transform="translate(58.666875 401.918125)scale(0.12 -0.12)">
       <use xlink:href="#DejaVuSans-2212"/>
       <use x="83.7890625" xlink:href="#DejaVuSans-30"/>
       <use x="147.412109375" xlink:href="#DejaVuSans-2e"/>
       <use x="179.19921875" xlink:href="#DejaVuSans-32"/>
      </g>
     </g>
    </g>
    <g id="xtick_2">
     <g id="line2d_3">
      <g>
       <use style="stroke:#000000;stroke-width:0.5;" x="135.771428571" xlink:href="#m93b0483c22" y="388.8"/>
      </g>
     </g>
     <g id="line2d_4">
      <g>
       <use style="stroke:#000000;stroke-width:0.5;" x="135.771428571" xlink:href="#m741efc42ff" y="43.2"/>
      </g>
     </g>
     <g id="text_2">
      <!-- 0.0 -->
      <g transform="translate(127.023616071 401.918125)scale(0.12 -0.12)">
       <use xlink:href="#DejaVuSans-30"/>
       <use x="63.623046875" xlink:href="#DejaVuSans-2e"/>
       <use x="95.41015625" xlink:href="#DejaVuSans-30"/>
      </g>
     </g>
    </g>
    <g id="xtick_3">
     <g id="line2d_5">
      <g>
       <use style="stroke:#000000;stroke-width:0.5;" x="199.542857143" xlink:href="#m93b0483c22" y="388.8"/>
      </g>
     </g>
     <g id="line2d_6">
      <g>
       <use style="stroke:#000000;stroke-width:0.5;" x="199.542857143" xlink:href="#m741efc42ff" y="43.2"/>
      </g>
     </g>
     <g id="text_3">
      <!-- 0.2 -->
      <g transform="translate(190.997544643 401.918125)scale(0.12 -0.12)">
       <use xlink:href="#DejaVuSans-30"/>
       <use x="63.623046875" xlink:href="#DejaVuSans-2e"/>
       <use x="95.41015625" xlink:href="#DejaVuSans-32"/>
      </g>
     </g>
    </g>
    <g id="xtick_4">
     <g id="line2d_7">
      <g>
       <use style="stroke:#000000;stroke-width:0.5;" x="263.314285714" xlink:href="#m93b0483c22" y="388.8"/>
      </g>
     </g>
     <g id="line2d_8">
      <g>
       <use style="stroke:#000000;stroke-width:0.5;" x="263.314285714" xlink:href="#m741efc42ff" y="43.2"/>
      </g>
     </g>
     <g id="text_4">
      <!-- 0.4 -->
      <defs>
       <path d="
M37.7969 64.3125
L12.8906 25.3906
L37.7969 25.3906
z

M35.2031 72.9062
L47.6094 72.9062
L47.6094 25.3906
L58.0156 25.3906
L58.0156 17.1875
L47.6094 17.1875
L47.6094 0
L37.7969 0
L37.7969 17.1875
L4.89062 17.1875
L4.89062 26.7031
z
" id="DejaVuSans-34"/>
      </defs>
      <g transform="translate(254.504598214 401.918125)scale(0.12 -0.12)">
       <use xlink:href="#DejaVuSans-30"/>
       <use x="63.623046875" xlink:href="#DejaVuSans-2e"/>
       <use x="95.41015625" xlink:href="#DejaVuSans-34"/>
      </g>
     </g>
    </g>
    <g id="xtick_5">
     <g id="line2d_9">
      <g>
       <use style="stroke:#000000;stroke-width:0.5;" x="327.085714286" xlink:href="#m93b0483c22" y="388.8"/>
      </g>
     </g>
     <g id="line2d_10">
      <g>
       <use style="stroke:#000000;stroke-width:0.5;" x="327.085714286" xlink:href="#m741efc42ff" y="43.2"/>
      </g>
     </g>
     <g id="text_5">
      <!-- 0.6 -->
      <defs>
       <path d="
M33.0156 40.375
Q26.375 40.375 22.4844 35.8281
Q18.6094 31.2969 18.6094 23.3906
Q18.6094 15.5312 22.4844 10.9531
Q26.375 6.39062 33.0156 6.39062
Q39.6562 6.39062 43.5312 10.9531
Q47.4062 15.5312 47.4062 23.3906
Q47.4062 31.2969 43.5312 35.8281
Q39.6562 40.375 33.0156 40.375
M52.5938 71.2969
L52.5938 62.3125
Q48.875 64.0625 45.0938 64.9844
Q41.3125 65.9219 37.5938 65.9219
Q27.8281 65.9219 22.6719 59.3281
Q17.5312 52.7344 16.7969 39.4062
Q19.6719 43.6562 24.0156 45.9219
Q28.375 48.1875 33.5938 48.1875
Q44.5781 48.1875 50.9531 41.5156
Q57.3281 34.8594 57.3281 23.3906
Q57.3281 12.1562 50.6875 5.35938
Q44.0469 -1.42188 33.0156 -1.42188
Q20.3594 -1.42188 13.6719 8.26562
Q6.98438 17.9688 6.98438 36.375
Q6.98438 53.6562 15.1875 63.9375
Q23.3906 74.2188 37.2031 74.2188
Q40.9219 74.2188 44.7031 73.4844
Q48.4844 72.75 52.5938 71.2969" id="DejaVuSans-36"/>
      </defs>
      <g transform="translate(318.317276786 401.918125)scale(0.12 -0.12)">
       <use xlink:href="#DejaVuSans-30"/>
       <use x="63.623046875" xlink:href="#DejaVuSans-2e"/>
       <use x="95.41015625" xlink:href="#DejaVuSans-36"/>
      </g>
     </g>
    </g>
    <g id="xtick_6">
     <g id="line2d_11">
      <g>
       <use style="stroke:#000000;stroke-width:0.5;" x="390.857142857" xlink:href="#m93b0483c22" y="388.8"/>
      </g>
     </g>
     <g id="line2d_12">
      <g>
       <use style="stroke:#000000;stroke-width:0.5;" x="390.857142857" xlink:href="#m741efc42ff" y="43.2"/>
      </g>
     </g>
     <g id="text_6">
      <!-- 0.8 -->
      <defs>
       <path d="
M31.7812 34.625
Q24.75 34.625 20.7188 30.8594
Q16.7031 27.0938 16.7031 20.5156
Q16.7031 13.9219 20.7188 10.1562
Q24.75 6.39062 31.7812 6.39062
Q38.8125 6.39062 42.8594 10.1719
Q46.9219 13.9688 46.9219 20.5156
Q46.9219 27.0938 42.8906 30.8594
Q38.875 34.625 31.7812 34.625
M21.9219 38.8125
Q15.5781 40.375 12.0312 44.7188
Q8.5 49.0781 8.5 55.3281
Q8.5 64.0625 14.7188 69.1406
Q20.9531 74.2188 31.7812 74.2188
Q42.6719 74.2188 48.875 69.1406
Q55.0781 64.0625 55.0781 55.3281
Q55.0781 49.0781 51.5312 44.7188
Q48 40.375 41.7031 38.8125
Q48.8281 37.1562 52.7969 32.3125
Q56.7812 27.4844 56.7812 20.5156
Q56.7812 9.90625 50.3125 4.23438
Q43.8438 -1.42188 31.7812 -1.42188
Q19.7344 -1.42188 13.25 4.23438
Q6.78125 9.90625 6.78125 20.5156
Q6.78125 27.4844 10.7812 32.3125
Q14.7969 37.1562 21.9219 38.8125
M18.3125 54.3906
Q18.3125 48.7344 21.8438 45.5625
Q25.3906 42.3906 31.7812 42.3906
Q38.1406 42.3906 41.7188 45.5625
Q45.3125 48.7344 45.3125 54.3906
Q45.3125 60.0625 41.7188 63.2344
Q38.1406 66.4062 31.7812 66.4062
Q25.3906 66.4062 21.8438 63.2344
Q18.3125 60.0625 18.3125 54.3906" id="DejaVuSans-38"/>
      </defs>
      <g transform="translate(382.121517857 401.918125)scale(0.12 -0.12)">
       <use xlink:href="#DejaVuSans-30"/>
       <use x="63.623046875" xlink:href="#DejaVuSans-2e"/>
       <use x="95.41015625" xlink:href="#DejaVuSans-38"/>
      </g>
     </g>
    </g>
    <g id="xtick_7">
     <g id="line2d_13">
      <g>
       <use style="stroke:#000000;stroke-width:0.5;" x="454.628571429" xlink:href="#m93b0483c22" y="388.8"/>
      </g>
     </g>
     <g id="line2d_14">
      <g>
       <use style="stroke:#000000;stroke-width:0.5;" x="454.628571429" xlink:href="#m741efc42ff" y="43.2"/>
      </g>
     </g>
     <g id="text_7">
      <!-- 1.0 -->
      <defs>
       <path d="
M12.4062 8.29688
L28.5156 8.29688
L28.5156 63.9219
L10.9844 60.4062
L10.9844 69.3906
L28.4219 72.9062
L38.2812 72.9062
L38.2812 8.29688
L54.3906 8.29688
L54.3906 0
L12.4062 0
z
" id="DejaVuSans-31"/>
      </defs>
      <g transform="translate(446.144196429 401.918125)scale(0.12 -0.12)">
       <use xlink:href="#DejaVuSans-31"/>
       <use x="63.623046875" xlink:href="#DejaVuSans-2e"/>
       <use x="95.41015625" xlink:href="#DejaVuSans-30"/>
      </g>
     </g>
    </g>
    <g id="xtick_8">
     <g id="line2d_15">
      <g>
       <use style="stroke:#000000;stroke-width:0.5;" x="518.4" xlink:href="#m93b0483c22" y="388.8"/>
      </g>
     </g>
     <g id="line2d_16">
      <g>
       <use style="stroke:#000000;stroke-width:0.5;" x="518.4" xlink:href="#m741efc42ff" y="43.2"/>
      </g>
     </g>
     <g id="text_8">
      <!-- 1.2 -->
      <g transform="translate(510.118125 401.918125)scale(0.12 -0.12)">
       <use xlink:href="#DejaVuSans-31"/>
       <use x="63.623046875" xlink:href="#DejaVuSans-2e"/>
       <use x="95.41015625" xlink:href="#DejaVuSans-32"/>
      </g>
     </g>
    </g>
   </g>
   <g id="matplotlib.axis_2">
    <g id="ytick_1">
     <g id="line2d_17">
      <defs>
       <path d="
M0 0
L4 0" id="m728421d6d4" style="stroke:#000000;stroke-width:0.5;"/>
      </defs>
      <g>
       <use style="stroke:#000000;stroke-width:0.5;" x="72.0" xlink:href="#m728421d6d4" y="388.8"/>
      </g>
     </g>
     <g id="line2d_18">
      <defs>
       <path d="
M0 0
L-4 0" id="mcb0005524f" style="stroke:#000000;stroke-width:0.5;"/>
      </defs>
      <g>
       <use style="stroke:#000000;stroke-width:0.5;" x="518.4" xlink:href="#mcb0005524f" y="388.8"/>
      </g>
     </g>
     <g id="text_9">
      <!-- −0.2 -->
      <g transform="translate(41.33375 392.11125)scale(0.12 -0.12)">
       <use xlink:href="#DejaVuSans-2212"/>
       <use x="83.7890625" xlink:href="#DejaVuSans-30"/>
       <use x="147.412109375" xlink:href="#DejaVuSans-2e"/>
       <use x="179.19921875" xlink:href="#DejaVuSans-32"/>
      </g>
     </g>
    </g>
    <g id="ytick_2">
     <g id="line2d_19">
      <g>
       <use style="stroke:#000000;stroke-width:0.5;" x="72.0" xlink:href="#m728421d6d4" y="339.428571429"/>
      </g>
     </g>
     <g id="line2d_20">
      <g>
       <use style="stroke:#000000;stroke-width:0.5;" x="518.4" xlink:href="#mcb0005524f" y="339.428571429"/>
      </g>
     </g>
     <g id="text_10">
      <!-- 0.0 -->
      <g transform="translate(50.504375 342.739821429)scale(0.12 -0.12)">
       <use xlink:href="#DejaVuSans-30"/>
       <use x="63.623046875" xlink:href="#DejaVuSans-2e"/>
       <use x="95.41015625" xlink:href="#DejaVuSans-30"/>
      </g>
     </g>
    </g>
    <g id="ytick_3">
     <g id="line2d_21">
      <g>
       <use style="stroke:#000000;stroke-width:0.5;" x="72.0" xlink:href="#m728421d6d4" y="290.057142857"/>
      </g>
     </g>
     <g id="line2d_22">
      <g>
       <use style="stroke:#000000;stroke-width:0.5;" x="518.4" xlink:href="#mcb0005524f" y="290.057142857"/>
      </g>
     </g>
     <g id="text_11">
      <!-- 0.2 -->
      <g transform="translate(50.909375 293.368392857)scale(0.12 -0.12)">
       <use xlink:href="#DejaVuSans-30"/>
       <use x="63.623046875" xlink:href="#DejaVuSans-2e"/>
       <use x="95.41015625" xlink:href="#DejaVuSans-32"/>
      </g>
     </g>
    </g>
    <g id="ytick_4">
     <g id="line2d_23">
      <g>
       <use style="stroke:#000000;stroke-width:0.5;" x="72.0" xlink:href="#m728421d6d4" y="240.685714286"/>
      </g>
     </g>
     <g id="line2d_24">
      <g>
       <use style="stroke:#000000;stroke-width:0.5;" x="518.4" xlink:href="#mcb0005524f" y="240.685714286"/>
      </g>
     </g>
     <g id="text_12">
      <!-- 0.4 -->
      <g transform="translate(50.380625 243.996964286)scale(0.12 -0.12)">
       <use xlink:href="#DejaVuSans-30"/>
       <use x="63.623046875" xlink:href="#DejaVuSans-2e"/>
       <use x="95.41015625" xlink:href="#DejaVuSans-34"/>
      </g>
     </g>
    </g>
    <g id="ytick_5">
     <g id="line2d_25">
      <g>
       <use style="stroke:#000000;stroke-width:0.5;" x="72.0" xlink:href="#m728421d6d4" y="191.314285714"/>
      </g>
     </g>
     <g id="line2d_26">
      <g>
       <use style="stroke:#000000;stroke-width:0.5;" x="518.4" xlink:href="#mcb0005524f" y="191.314285714"/>
      </g>
     </g>
     <g id="text_13">
      <!-- 0.6 -->
      <g transform="translate(50.463125 194.625535714)scale(0.12 -0.12)">
       <use xlink:href="#DejaVuSans-30"/>
       <use x="63.623046875" xlink:href="#DejaVuSans-2e"/>
       <use x="95.41015625" xlink:href="#DejaVuSans-36"/>
      </g>
     </g>
    </g>
    <g id="ytick_6">
     <g id="line2d_27">
      <g>
       <use style="stroke:#000000;stroke-width:0.5;" x="72.0" xlink:href="#m728421d6d4" y="141.942857143"/>
      </g>
     </g>
     <g id="line2d_28">
      <g>
       <use style="stroke:#000000;stroke-width:0.5;" x="518.4" xlink:href="#mcb0005524f" y="141.942857143"/>
      </g>
     </g>
     <g id="text_14">
      <!-- 0.8 -->
      <g transform="translate(50.52875 145.254107143)scale(0.12 -0.12)">
       <use xlink:href="#DejaVuSans-30"/>
       <use x="63.623046875" xlink:href="#DejaVuSans-2e"/>
       <use x="95.41015625" xlink:href="#DejaVuSans-38"/>
      </g>
     </g>
    </g>
    <g id="ytick_7">
     <g id="line2d_29">
      <g>
       <use style="stroke:#000000;stroke-width:0.5;" x="72.0" xlink:href="#m728421d6d4" y="92.5714285714"/>
      </g>
     </g>
     <g id="line2d_30">
      <g>
       <use style="stroke:#000000;stroke-width:0.5;" x="518.4" xlink:href="#mcb0005524f" y="92.5714285714"/>
      </g>
     </g>
     <g id="text_15">
      <!-- 1.0 -->
      <g transform="translate(51.03125 95.8826785714)scale(0.12 -0.12)">
       <use xlink:href="#DejaVuSans-31"/>
       <use x="63.623046875" xlink:href="#DejaVuSans-2e"/>
       <use x="95.41015625" xlink:href="#DejaVuSans-30"/>
      </g>
     </g>
    </g>
    <g id="ytick_8">
     <g id="line2d_31">
      <g>
       <use style="stroke:#000000;stroke-width:0.5;" x="72.0" xlink:href="#m728421d6d4" y="43.2"/>
      </g>
     </g>
     <g id="line2d_32">
      <g>
       <use style="stroke:#000000;stroke-width:0.5;" x="518.4" xlink:href="#mcb0005524f" y="43.2"/>
      </g>
     </g>
     <g id="text_16">
      <!-- 1.2 -->
      <g transform="translate(51.43625 46.51125)scale(0.12 -0.12)">
       <use xlink:href="#DejaVuSans-31"/>
       <use x="63.623046875" xlink:href="#DejaVuSans-2e"/>
       <use x="95.41015625" xlink:href="#DejaVuSans-32"/>
      </g>
     </g>
    </g>
   </g>
   <g id="patch_3">
    <path d="
M72 43.2
L518.4 43.2" style="fill:none;stroke:#000000;"/>
   </g>
   <g id="patch_4">
    <path d="
M518.4 388.8
L518.4 43.2" style="fill:none;stroke:#000000;"/>
   </g>
   <g id="patch_5">
    <path d="
M72 388.8
L518.4 388.8" style="fill:none;stroke:#000000;"/>
   </g>
   <g id="patch_6">
    <path d="
M72 388.8
L72 43.2" style="fill:none;stroke:#000000;"/>
   </g>
  </g>
 </g>
 <defs>
  <clipPath id="p7ff5b81e1d">
   <rect height="345.6" width="446.4" x="72.0" y="43.2"/>
  </clipPath>
 </defs>
</svg>
